#!OML:ASF C:\Vicon Data\Big\jianyuan-12\jianyuan\Session 1\Capture.male.ASF
:FULLY-SPECIFIED
:DEGREES
70
root -9.124621 17.357673 -18.341556 1.234527 -10.882655 6.867082
lowerback -7.606760 -0.802376 -4.268381 
upperback 2.782574 -0.561345 -0.642201 
thorax 7.242809 -0.446689 1.647484 
lowerneck 2.490909 -11.321223 -5.417192 
upperneck -1.107617 -15.082174 13.642596 
head 0.744525 -7.565442 4.758255 
rclavicle 0.000000 0.000000 
rhumerus -30.081920 -24.403078 -83.823223 
rradius 36.817740 
rwrist 30.876895 
rhand -20.087018 -5.394301 
rfingers 0.000000 
rthumb 6.255792 -35.281938 
lclavicle 0.000000 0.000000 
lhumerus -43.671140 36.868603 65.564823 
lradius 25.543340 
lwrist -57.132726 
lhand -7.330793 3.957064 
lfingers 0.000000 
lthumb 18.552657 33.092364 
rfemur -14.279988 1.220231 24.036415 
rtibia 33.383688 
rfoot -27.901172 -4.325566 
rtoes 6.492430 
lfemur -29.172238 2.878609 -20.468789 
ltibia 62.435605 
lfoot -10.446657 3.609398 
ltoes -29.719187 
71
root -9.141974 17.353098 -18.274974 1.075668 -11.051375 6.951657
lowerback -7.404728 -0.778101 -4.328171 
upperback 2.803243 -0.530609 -0.659689 
thorax 7.147104 -0.432029 1.668568 
lowerneck 2.574246 -11.303315 -5.494334 
upperneck -1.159333 -15.059524 13.619918 
head 0.717637 -7.559638 4.770943 
rclavicle 0.000000 0.000000 
rhumerus -29.805760 -23.886734 -84.082512 
rradius 37.095737 
rwrist 30.517696 
rhand -20.138536 -5.135341 
rfingers 0.000000 
rthumb 6.206112 -35.024430 
lclavicle 0.000000 0.000000 
lhumerus -44.174564 36.939413 65.196285 
lradius 25.510519 
lwrist -56.987415 
lhand -7.281035 3.997983 
lfingers 0.000000 
lthumb 18.600472 33.128697 
rfemur -13.787748 1.431220 23.997934 
rtibia 33.303085 
rfoot -28.170799 -4.306743 
rtoes 6.589080 
lfemur -29.337672 2.437802 -20.454258 
ltibia 61.408340 
lfoot -10.814264 3.600049 
ltoes -29.381646 
72
root -9.167054 17.351218 -18.207480 1.342176 -11.646533 6.895470
lowerback -7.683380 -0.627816 -4.256066 
upperback 2.742825 -0.325492 -0.662037 
thorax 7.229559 -0.329512 1.652374 
lowerneck 2.509597 -11.318907 -5.456680 
upperneck -1.111101 -15.083858 13.545296 
head 0.735808 -7.568471 4.737218 
rclavicle 0.000000 0.000000 
rhumerus -29.444463 -23.536126 -84.332387 
rradius 37.348495 
rwrist 30.230858 
rhand -20.077485 -4.902829 
rfingers 0.000000 
rthumb 6.265019 -34.790194 
lclavicle 0.000000 0.000000 
lhumerus -44.664592 37.178422 64.674936 
lradius 25.450980 
lwrist -57.169194 
lhand -7.231750 4.063290 
lfingers 0.000000 
lthumb 18.647946 33.189469 
rfemur -13.767424 1.957517 24.109561 
rtibia 33.203518 
rfoot -28.236723 -4.218234 
rtoes 6.758137 
lfemur -29.914436 2.525395 -20.322781 
ltibia 60.340175 
lfoot -11.078364 3.715479 
ltoes -30.175108 
73
root -9.188422 17.350685 -18.140330 1.602624 -12.370542 6.841985
lowerback -7.911666 -0.416172 -4.141067 
upperback 2.641235 -0.045707 -0.686736 
thorax 7.234273 -0.186000 1.600601 
lowerneck 2.489662 -11.350563 -5.381671 
upperneck -1.027588 -15.131444 13.459161 
head 0.755489 -7.588972 4.695631 
rclavicle 0.000000 0.000000 
rhumerus -29.142643 -23.389203 -84.535810 
rradius 37.474728 
rwrist 30.161201 
rhand -19.998461 -5.150219 
rfingers 0.000000 
rthumb 6.341321 -35.035275 
lclavicle 0.000000 0.000000 
lhumerus -45.222949 37.284486 64.129503 
lradius 25.427655 
lwrist -57.355192 
lhand -7.240687 4.006203 
lfingers 0.000000 
lthumb 18.639321 33.133179 
rfemur -13.761944 2.192001 24.169661 
rtibia 33.073238 
rfoot -28.232040 -3.854052 
rtoes 6.232418 
lfemur -30.439747 2.548430 -20.162710 
ltibia 59.201919 
lfoot -11.569745 3.939001 
ltoes -29.943378 
74
root -9.207398 17.351302 -18.068470 1.483586 -12.568886 6.937211
lowerback -7.825989 -0.385892 -4.184817 
upperback 2.681722 0.001605 -0.743512 
thorax 7.225586 -0.163093 1.572128 
lowerneck 2.486822 -11.350948 -5.363452 
upperneck -1.020797 -15.132188 13.444973 
head 0.755493 -7.589236 4.688529 
rclavicle 0.000000 0.000000 
rhumerus -28.815324 -23.132633 -84.799230 
rradius 37.734428 
rwrist 29.930157 
rhand -19.966394 -5.125891 
rfingers 0.000000 
rthumb 6.372235 -35.010030 
lclavicle 0.000000 0.000000 
lhumerus -45.670078 37.402436 63.678844 
lradius 25.399781 
lwrist -57.309873 
lhand -7.152384 4.028239 
lfingers 0.000000 
lthumb 18.724252 33.147069 
rfemur -13.260903 2.243172 24.104490 
rtibia 32.903647 
rfoot -28.397718 -3.703732 
rtoes 6.062170 
lfemur -30.517916 2.100617 -20.154484 
ltibia 57.957275 
lfoot -11.787020 4.167632 
ltoes -30.712606 
